<svg width="77" height="77" viewBox="0 0 77 77" fill="none" xmlns="http://www.w3.org/2000/svg">
<path d="M51.4251 7.33712C51.2722 8.29298 51.1957 9.24884 51.1957 10.2047C51.1957 18.8074 58.1543 25.7622 66.7188 25.7622C67.6747 25.7622 68.5923 25.6513 69.5482 25.4984V56.3497C69.5482 69.3149 61.9013 77 48.9016 77H20.6503C7.64686 77 0 69.3149 0 56.3497V28.0601C0 15.0604 7.64686 7.33712 20.6503 7.33712H51.4251ZM52.1936 30.5836C51.1575 30.4689 50.129 30.9277 49.5134 31.7688L40.2645 43.7362L29.6698 35.4011C29.0198 34.904 28.2551 34.709 27.4904 34.7893C26.7296 34.904 26.0414 35.3208 25.5787 35.9325L14.2652 50.6566L14.032 51.0007C13.382 52.2204 13.6879 53.788 14.8349 54.6329C15.3702 54.977 15.9437 55.2064 16.5937 55.2064C17.4769 55.2447 18.3142 54.7821 18.8495 54.0594L28.4463 41.7059L39.3431 49.8919L39.6872 50.1175C40.9107 50.7674 42.4401 50.4654 43.3194 49.3145L54.3691 35.057L54.2162 35.1334C54.828 34.2923 54.9427 33.2217 54.5221 32.2659C54.1053 31.31 53.1839 30.66 52.1936 30.5836ZM67.2545 0.530273C72.3396 0.530273 76.4689 4.65958 76.4689 9.74474C76.4689 14.8299 72.3396 18.9592 67.2545 18.9592C62.1693 18.9592 58.04 14.8299 58.04 9.74474C58.04 4.65958 62.1693 0.530273 67.2545 0.530273Z" fill="black"/>
</svg>
