<svg width="77" height="77" viewBox="0 0 77 77" fill="none" xmlns="http://www.w3.org/2000/svg">
<path d="M56.0859 0.53125C69.0894 0.53125 76.4303 7.90664 76.4686 20.9101V56.6209C76.4686 69.6206 69.0894 76.9998 56.0859 76.9998H20.3789C7.37539 76.9998 0 69.6206 0 56.6209V20.9101C0 7.90664 7.37539 0.53125 20.3789 0.53125H56.0859ZM40.146 16.322C39.0716 15.672 37.7717 15.672 36.7431 16.322C35.707 16.9682 35.1373 18.1573 35.2482 19.3425V58.3033C35.4432 59.9473 36.8158 61.1708 38.4216 61.1708C40.0695 61.1708 41.4421 59.9473 41.5951 58.3033V19.3425C41.748 18.1573 41.1783 16.9682 40.146 16.322ZM22.2906 28.8629C21.2583 28.2129 19.9545 28.2129 18.926 28.8629C17.8898 29.5128 17.3201 30.6943 17.4348 31.8834V58.3033C17.5839 59.9473 18.9604 61.1708 20.6045 61.1708C22.2524 61.1708 23.625 59.9473 23.7779 58.3033V31.8834C23.8964 30.6943 23.3191 29.5128 22.2906 28.8629ZM57.6917 42.7419C56.6632 42.0919 55.3632 42.0919 54.2927 42.7419C53.2565 43.3919 52.6868 44.5351 52.8398 45.7624V58.3033C52.9927 59.9473 54.3653 61.1708 56.0132 61.1708C57.6191 61.1708 58.9917 59.9473 59.1867 58.3033V45.7624C59.2976 44.5351 58.7279 43.3919 57.6917 42.7419Z" fill="black"/>
</svg>
